<?xml version="1.0" encoding="UTF-8" standalone="no"?>
<!-- Created with Inkscape (http://www.inkscape.org/) -->
<svg
   xmlns:dc="http://purl.org/dc/elements/1.1/"
   xmlns:cc="http://web.resource.org/cc/"
   xmlns:rdf="http://www.w3.org/1999/02/22-rdf-syntax-ns#"
   xmlns:svg="http://www.w3.org/2000/svg"
   xmlns="http://www.w3.org/2000/svg"
   xmlns:sodipodi="http://sodipodi.sourceforge.net/DTD/sodipodi-0.dtd"
   xmlns:inkscape="http://www.inkscape.org/namespaces/inkscape"
   id="svg2"
   sodipodi:version="0.32"
   inkscape:version="0.45pre1"
   width="256"
   height="256"
   version="1.0"
   sodipodi:docbase="/home/dave/code/lad/machina/src/gui"
   sodipodi:docname="machina-icon.svg"
   inkscape:output_extension="org.inkscape.output.svg.inkscape"
   sodipodi:modified="true">
  <metadata
     id="metadata7">
    <rdf:RDF>
      <cc:Work
         rdf:about="">
        <dc:format>image/svg+xml</dc:format>
        <dc:type
           rdf:resource="http://purl.org/dc/dcmitype/StillImage" />
      </cc:Work>
    </rdf:RDF>
  </metadata>
  <defs
     id="defs5" />
  <sodipodi:namedview
     inkscape:window-height="771"
     inkscape:window-width="1183"
     inkscape:pageshadow="2"
     inkscape:pageopacity="0.0"
     guidetolerance="10.0"
     gridtolerance="10.0"
     objecttolerance="10.0"
     borderopacity="1.0"
     bordercolor="#666666"
     pagecolor="#ffffff"
     id="base"
     inkscape:zoom="1.4142136"
     inkscape:cx="310.87907"
     inkscape:cy="40.263308"
     inkscape:window-x="293"
     inkscape:window-y="52"
     inkscape:current-layer="svg2"
     width="256px"
     height="256px" />
  <path
     style="fill:#000000"
     id="path2189"
     d="M 9.0278551,221.40628 C 22.572047,206.65805 31.269455,188.04472 39.259152,169.8919 C 51.644822,140.58208 56.041288,109.13092 58.849953,77.700978 C 59.962909,56.867589 61.443535,35.864275 59.495794,15.031194 C 63.699947,13.959444 67.938586,10.617016 72.108252,11.815945 C 77.429885,13.346107 71.833885,22.901101 72.179608,28.42755 C 73.082013,42.852664 75.819667,56.648771 78.944682,70.727057 C 85.857753,99.135712 98.546656,125.08352 122.5541,142.3916 C 149.02904,155.16169 159.76491,132.36389 173.41824,112.97967 C 189.89026,87.286307 201.67487,59.107084 212.79124,30.80732 C 238.81023,-0.42720544 213.47911,64.070958 211.76716,70.33904 C 202.71922,108.04829 200.75405,146.89462 201.60034,185.52025 C 202.59785,202.30805 203.03716,219.51338 208.40658,235.60545 C 209.82998,239.98783 211.97855,244.0493 214.19967,248.06447 L 201.80123,255.17231 C 199.63995,251.03059 197.23968,246.9206 196.00991,242.38503 C 191.48082,225.58243 192.01187,207.89788 191.55783,190.64995 C 191.61755,152.05096 193.33386,113.23415 201.28376,75.349455 C 205.86472,56.717664 207.3011,28.642568 227.34088,20.082503 C 229.12544,19.320222 225.62336,23.562881 224.76461,25.303071 C 211.8352,53.436232 199.91298,82.147117 183.57547,108.55509 C 167.9424,131.6754 143.08989,165.0319 111.95557,149.10157 C 88.367319,131.04024 76.047527,104.6256 68.72284,76.231983 C 66.537387,67.180737 52.831088,26.99333 59.36089,18.303914 C 62.551525,14.058035 67.78841,11.838043 72.002169,8.6051067 C 71.542368,29.947073 70.679719,51.279977 69.135855,72.573834 C 66.386515,103.98497 62.160375,135.44301 50.178851,164.87632 C 42.654028,182.74324 34.458191,200.83743 22.235303,216.04826 L 9.0278551,221.40628 z " />
  <path
     style="fill:#000000"
     id="path2191"
     d="M 177.4044,227.49356 C 186.73664,226.83386 194.85497,230.46984 202.63542,235.17331 C 208.34182,239.12994 205.55279,237.07748 211.00405,241.32859 L 199.24569,248.73751 C 193.86468,244.57093 196.63478,246.5644 190.93236,242.7613 C 183.22589,238.37114 175.24676,235.06127 166.16497,235.78874 L 177.4044,227.49356 z " />
  <path
     style="fill:#000000"
     id="path2193"
     d="M 202.904,253.28805 C 206.25526,244.218 211.55226,236.16787 216.96397,228.23361 C 217.73013,227.17184 218.49629,226.11007 219.26244,225.0483 L 232.24972,219.44712 C 231.4278,220.51566 230.60588,221.58419 229.78396,222.65273 C 224.30649,230.41756 219.07262,238.3307 215.72758,247.29568 L 202.904,253.28805 z " />
</svg>
